<svg width="227" height="63" viewBox="0 0 227 63" fill="none" xmlns="http://www.w3.org/2000/svg">
<path fill-rule="evenodd" clip-rule="evenodd" d="M12.8408 44.9081L35.4651 5.72717C37.6178 1.99608 41.5585 -0.0586373 45.5836 0.0168683C45.4905 0.0136553 45.3965 0 45.3033 0H22.7994C18.6715 0 14.8617 2.19609 12.799 5.76814L1.54706 25.2622C-0.515687 28.8311 -0.515687 33.2321 1.54706 36.8033L12.799 56.2974C12.848 56.3769 12.9098 56.4492 12.9572 56.5287C10.8824 53.0812 10.6856 48.6416 12.8408 44.9081Z" fill="#329DFF"/>
<path d="M14.2537 42.465L12.8432 44.906C9.68804 50.3754 11.5636 57.3653 17.0306 60.5236C22.4991 63.6788 29.4882 61.8072 32.6433 56.3379L40.6541 42.465H14.2537Z" fill="#213D91"/>
<path d="M53.8529 19.6026L55.2626 17.1607C58.4178 11.6922 56.5462 4.70151 51.0769 1.54314C45.6108 -1.61203 38.6209 0.261148 35.4665 5.73048L27.4549 19.6026H53.8529Z" fill="#213D91"/>
<path d="M53.8492 19.6026L32.6418 56.3376C30.4866 60.0687 26.5451 62.125 22.5208 62.0519C22.6132 62.0519 22.7032 62.0688 22.7963 62.0688H45.3042C49.4281 62.0688 53.2387 59.8695 55.3006 56.2966L65.167 39.2067L53.8492 19.6026Z" fill="#1ED5D1"/>
<path d="M92.0424 32.7618C90.3853 32.0445 88.9539 31.0789 87.7635 29.858C86.5666 28.6435 85.6324 27.2193 84.9465 25.596C84.2669 23.9718 83.9255 22.2376 83.9255 20.3989C83.9255 18.5362 84.2669 16.7851 84.9465 15.1505C85.6324 13.5119 86.5666 12.0917 87.7635 10.8844C88.9539 9.68117 90.3853 8.72289 92.0424 8.02005C93.7019 7.3156 95.5156 6.96378 97.4707 6.96378C98.7849 6.96378 100.026 7.12362 101.199 7.44653C102.371 7.76783 103.457 8.2297 104.461 8.82651C105.465 9.42333 106.364 10.1334 107.168 10.9567C107.964 11.7817 108.65 12.695 109.223 13.699L105.822 15.7401C104.985 14.1641 103.857 12.9295 102.436 12.0331C101.016 11.1367 99.36 10.6925 97.4707 10.6925C96.0642 10.6925 94.767 10.9471 93.5846 11.4572C92.4014 11.9744 91.3877 12.6717 90.5363 13.5569C89.6921 14.4396 89.0294 15.471 88.5498 16.6542C88.0743 17.8366 87.8325 19.0848 87.8325 20.3989C87.8325 21.7372 88.0743 22.9918 88.5498 24.1614C89.0294 25.3341 89.6945 26.3615 90.5572 27.2442C91.415 28.127 92.4368 28.8194 93.6192 29.323C94.8056 29.8235 96.0988 30.0749 97.5093 30.0749C98.7503 30.0749 99.8741 29.8958 100.878 29.5375C101.881 29.1785 102.757 28.6748 103.509 28.0338C104.265 27.3856 104.878 26.6233 105.355 25.7406C105.833 24.8538 106.181 23.8891 106.396 22.8376H97.0057V19.1475H110.481V20.5443C110.481 22.3123 110.189 24.0023 109.602 25.6128C109.016 27.2266 108.172 28.6435 107.057 29.858C105.947 31.0789 104.589 32.0445 102.975 32.7618C101.361 33.4783 99.5399 33.8373 97.5093 33.8373C95.5269 33.8373 93.7019 33.4783 92.0424 32.7618Z" fill="#213D91"/>
<path d="M122.643 21.2608H127.335C128.34 21.2608 129.205 21.109 129.936 20.8134C130.663 20.513 131.267 20.1202 131.746 19.6262C132.222 19.141 132.577 18.5787 132.802 17.9442C133.029 17.3096 133.143 16.6469 133.143 15.9577C133.143 14.4508 132.66 13.2403 131.691 12.3198C130.726 11.4017 129.274 10.9406 127.335 10.9406H122.643V21.2608ZM127.66 7.31958C129.095 7.31958 130.385 7.53967 131.529 7.98146C132.678 8.42244 133.66 9.03372 134.488 9.81207C135.312 10.5848 135.942 11.5093 136.384 12.568C136.826 13.6331 137.05 14.7986 137.05 16.0646C137.05 17.7128 136.615 19.2406 135.743 20.6511C134.87 22.0576 133.622 23.1091 131.998 23.8023L137.55 33.4782H133.108L128.34 24.8063H122.643V33.4782H118.738V7.31958H127.66Z" fill="#213D91"/>
<path d="M160.179 24.1613L156.02 12.6949L151.865 24.1613H160.179ZM158.028 7.31876L167.631 33.4782H163.58L161.542 27.8884H150.503L148.496 33.4782H144.412L154.013 7.31876H158.028Z" fill="#213D91"/>
<path d="M179.903 7.31958L193.162 27.0996V7.31958H197.034V33.4782H192.91L179.4 13.3785V33.4782H175.499V7.31958H179.903Z" fill="#213D91"/>
<path d="M209.944 29.8588H213.027C214.53 29.8588 215.9 29.6202 217.126 29.1415C218.358 28.6651 219.416 28.0033 220.299 27.155C221.186 26.3068 221.865 25.3035 222.344 24.1445C222.817 22.9862 223.058 21.7379 223.058 20.3997C223.058 19.0382 222.837 17.7723 222.396 16.6003C221.952 15.4308 221.303 14.4267 220.444 13.5897C219.582 12.7544 218.52 12.0997 217.254 11.6194C215.988 11.1406 214.53 10.9029 212.882 10.9029H209.944V29.8588ZM213.278 7.31958C215.403 7.31958 217.313 7.65775 219.01 8.32364C220.706 8.99195 222.144 9.91327 223.327 11.086C224.509 12.2547 225.417 13.6347 226.051 15.2236C226.682 16.81 227 18.5378 227 20.3997C227 22.2616 226.662 23.9967 225.978 25.5967C225.296 27.196 224.355 28.576 223.148 29.7351C221.94 30.8934 220.507 31.8042 218.848 32.4758C217.189 33.1449 215.379 33.4798 213.419 33.4798H206.037V7.31958H213.278Z" fill="#213D91"/>
<path d="M86.7556 44.9034L90.5726 50.1824L94.515 44.9034H95.5528V54.9658H94.4732V46.6409L90.5493 51.9343L86.7692 46.779V54.9658H85.6905V44.9034H86.7556Z" fill="#213D91"/>
<path d="M106.083 51.3958L104.162 46.3506L102.266 51.3958H106.083ZM104.742 44.9023L108.563 54.9679H107.448L106.466 52.4159H101.876L100.91 54.9679H99.7787L103.582 44.9023H104.742Z" fill="#213D91"/>
<path d="M113.857 50.3615H116.33C116.703 50.3615 117.044 50.2965 117.348 50.1687C117.651 50.041 117.91 49.8691 118.12 49.6587C118.33 49.4474 118.492 49.2065 118.603 48.9342C118.713 48.6659 118.768 48.3863 118.768 48.1036C118.768 47.7895 118.713 47.4963 118.603 47.228C118.492 46.9549 118.33 46.7204 118.12 46.5236C117.91 46.3276 117.655 46.1718 117.355 46.0617C117.058 45.9509 116.72 45.8963 116.344 45.8963H113.857V50.3615ZM116.423 44.9034C116.924 44.9034 117.378 44.9854 117.799 45.1516C118.217 45.3171 118.572 45.5444 118.875 45.8336C119.178 46.1244 119.416 46.465 119.589 46.8553C119.757 47.2441 119.844 47.6618 119.844 48.1036C119.844 48.4313 119.793 48.7542 119.689 49.0683C119.589 49.3791 119.443 49.6659 119.258 49.9278C119.072 50.1896 118.834 50.4242 118.558 50.6234C118.282 50.8282 117.975 50.9824 117.637 51.0925L119.926 54.9658H118.672L116.561 51.327H113.857V54.9658H112.784V44.9034H116.423Z" fill="#213D91"/>
<path d="M125.364 51.8786V54.9679H124.292V44.9023H125.364V50.444L130.123 44.9023H131.447L128.013 48.9298L131.888 54.9679H130.644L127.257 49.6576L125.364 51.8786Z" fill="#213D91"/>
<path d="M142.071 44.9034V45.9236H137.041V49.4105H142.071V50.4306H137.041V53.9344H142.071V54.9658H135.964V44.9034H142.071Z" fill="#213D91"/>
<path d="M146.287 45.8963V44.9034H153.415V45.8963H150.394V54.9658H149.322V45.8963H146.287Z" fill="#213D91"/>
<path d="M159.003 54.9658H157.928V44.9034H159.003V54.9658Z" fill="#213D91"/>
<path d="M165.077 44.9034L171.004 53.2588V44.9034H172.077V54.9658H170.932L164.953 46.5445V54.9658H163.874V44.9034H165.077Z" fill="#213D91"/>
<path d="M179.685 54.6974C179.051 54.4251 178.5 54.0564 178.033 53.5873C177.565 53.1182 177.193 52.5736 176.93 51.9487C176.661 51.3213 176.527 50.653 176.527 49.9349C176.527 49.2176 176.661 48.5453 176.924 47.922C177.181 47.297 177.551 46.7484 178.019 46.2833C178.486 45.8142 179.041 45.4415 179.685 45.1732C180.33 44.9001 181.034 44.766 181.792 44.766C182.282 44.766 182.747 44.8278 183.189 44.9523C183.63 45.0728 184.04 45.252 184.419 45.4841C184.803 45.7106 185.147 45.9869 185.464 46.3074C185.775 46.6311 186.044 46.9902 186.261 47.383L185.323 47.922C184.985 47.2802 184.509 46.7621 183.905 46.3693C183.296 45.9805 182.596 45.7869 181.792 45.7869C181.161 45.7869 180.589 45.897 180.078 46.1179C179.572 46.338 179.133 46.6352 178.768 47.0103C178.406 47.3902 178.127 47.828 177.926 48.3284C177.734 48.8288 177.63 49.3662 177.63 49.9349C177.63 50.5044 177.734 51.0386 177.933 51.5382C178.136 52.0418 178.423 52.4796 178.789 52.8563C179.158 53.2355 179.592 53.5319 180.092 53.756C180.596 53.9736 181.141 54.0837 181.741 54.0837C182.33 54.0837 182.854 53.9977 183.32 53.8218C183.778 53.6491 184.179 53.4041 184.509 53.0909C184.84 52.78 185.106 52.4113 185.302 51.9896C185.503 51.5671 185.634 51.1109 185.696 50.6241H181.657V49.604H186.81V49.9076C186.81 50.5968 186.702 51.2562 186.482 51.8876C186.261 52.5149 185.934 53.07 185.503 53.5487C185.072 54.0251 184.54 54.4042 183.913 54.6837C183.282 54.9665 182.558 55.1046 181.741 55.1046C181.006 55.1046 180.319 54.9697 179.685 54.6974Z" fill="#213D91"/>
<path d="M197.935 54.9658H196.859V44.9034H197.935V54.9658Z" fill="#213D91"/>
<path d="M204.005 44.9034L209.932 53.2588V44.9034H211.005V54.9658H209.863L203.877 46.5445V54.9658H202.805V44.9034H204.005Z" fill="#213D91"/>
<path d="M218.605 54.6974C217.982 54.4251 217.433 54.0564 216.964 53.5873C216.499 53.1182 216.126 52.5736 215.853 51.9487C215.585 51.3213 215.45 50.653 215.45 49.9349C215.45 49.2176 215.585 48.5453 215.853 47.922C216.126 47.297 216.499 46.7484 216.964 46.2833C217.433 45.8142 217.982 45.4415 218.605 45.1732C219.23 44.9001 219.902 44.766 220.619 44.766C221.098 44.766 221.553 44.8278 221.995 44.9523C222.437 45.0728 222.85 45.252 223.237 45.4841C223.626 45.7106 223.977 45.9869 224.292 46.301C224.609 46.6175 224.878 46.9693 225.103 47.3557L224.175 47.893C223.829 47.2697 223.343 46.7621 222.719 46.3693C222.102 45.9805 221.402 45.7869 220.619 45.7869C220.04 45.7869 219.505 45.897 219.005 46.1179C218.509 46.338 218.081 46.6352 217.716 47.0103C217.357 47.3902 217.068 47.828 216.864 48.3284C216.657 48.8288 216.55 49.3662 216.55 49.9349C216.55 50.5044 216.657 51.0386 216.864 51.5382C217.068 52.0418 217.357 52.4796 217.716 52.8563C218.081 53.2355 218.509 53.5319 219.005 53.756C219.505 53.9736 220.04 54.0837 220.619 54.0837C221.502 54.0837 222.254 53.8765 222.864 53.4564C223.481 53.0387 223.957 52.4941 224.284 51.825L225.237 52.3214C225.013 52.735 224.751 53.111 224.444 53.4491C224.137 53.7905 223.785 54.0837 223.392 54.3319C222.992 54.5801 222.561 54.7697 222.102 54.9038C221.637 55.0388 221.14 55.1046 220.619 55.1046C219.902 55.1046 219.23 54.9697 218.605 54.6974Z" fill="#213D91"/>
</svg>
