<svg width="134" height="76" viewBox="0 0 134 76" fill="none" xmlns="http://www.w3.org/2000/svg">
<path d="M134 43.279L131.714 47.1155L134 50.9523V56.5036C134 59.0002 131.978 61.0199 129.484 61.0199H94.5414C92.2901 61.0199 90.4649 59.1973 90.4649 56.946L84.5469 39.5799L90.4649 20.7929C90.4649 18.5416 92.2901 16.719 94.5414 16.719H111.587C113.612 16.719 115.466 17.8514 116.388 19.6552L120.619 27.919C120.977 28.6173 121.552 29.1781 122.258 29.5178L131.439 33.9288C133.005 34.681 134 36.261 134 37.9973V43.279Z" fill="#329DFF"/>
<path d="M134 43.279L131.714 47.1156L134 50.9524V56.5037C134 59.0002 131.978 61.0199 129.484 61.0199H123.067C125.563 61.0199 127.586 59.0005 127.586 56.5037V37.997C127.586 36.2608 126.591 34.6808 125.024 33.9286L115.841 29.5176C115.137 29.1779 114.561 28.617 114.205 27.9187L109.974 19.655C109.049 17.8512 107.197 16.7188 105.17 16.7188H111.586C113.611 16.7188 115.466 17.8512 116.388 19.655L120.619 27.9187C120.977 28.617 121.552 29.1779 122.258 29.5176L131.438 33.9286C133.005 34.6808 134 36.2608 134 37.997V43.279H134Z" fill="#3C87D0"/>
<path d="M106.111 35.0069L99.9504 35.008C99.1066 35.008 98.4227 34.3241 98.4227 33.4803V26.2037C98.4227 25.36 99.1066 24.6761 99.9504 24.6761L102.052 24.675C102.78 24.675 105.434 25.0825 105.765 25.7303L109.413 32.8585C109.915 33.8407 107.214 35.0069 106.111 35.0069Z" fill="#6BD9E7"/>
<path d="M112.892 35.0069H106.111C107.213 35.0069 107.928 33.8423 107.424 32.8608L103.779 25.7321C103.447 25.0851 102.781 24.6753 102.053 24.6753H108.834C109.562 24.6753 110.228 25.0851 110.559 25.7321L114.207 32.8608C114.709 33.8423 113.997 35.0069 112.892 35.0069Z" fill="#02C7DD"/>
<path d="M110.162 75.1706C116.373 75.1706 121.408 70.1355 121.408 63.9245C121.408 57.7135 116.373 52.6785 110.162 52.6785C103.951 52.6785 98.9158 57.7135 98.9158 63.9245C98.9158 70.1355 103.951 75.1706 110.162 75.1706Z" fill="#918291"/>
<path d="M110.162 52.6787C109.047 52.6787 107.971 52.8433 106.954 53.1456C111.602 54.5267 114.992 58.8286 114.992 63.9248C114.992 69.021 111.602 73.3228 106.954 74.7039C107.971 75.0062 109.047 75.1708 110.162 75.1708C116.373 75.1708 121.408 70.1359 121.408 63.9248C121.408 57.7137 116.373 52.6787 110.162 52.6787Z" fill="#7C727C"/>
<path d="M127.584 43.2791L129.083 46.5128L127.584 50.9534H126.899C125.913 50.9534 125.115 50.1547 125.115 49.1696V45.0632C125.115 44.0778 125.914 43.2793 126.899 43.2793L127.584 43.2791Z" fill="#FE646F"/>
<path d="M127.585 43.2791H134V50.9534H127.585V43.2791Z" fill="#FD4755"/>
<path d="M110.162 66.0189C111.319 66.0189 112.256 65.0812 112.256 63.9246C112.256 62.768 111.319 61.8303 110.162 61.8303C109.005 61.8303 108.068 62.768 108.068 63.9246C108.068 65.0812 109.005 66.0189 110.162 66.0189Z" fill="#DCF5F8"/>
<path d="M90.4649 4.07653V56.9432C90.4649 59.1945 88.6397 61.0197 86.3884 61.0197H73.444L72.7295 60.7664L63.7513 57.5957L54.0585 61.0197H4.07653C1.82523 61.0197 0 59.1945 0 56.9432V4.07653C0 1.82523 1.82523 2.81383e-08 4.07653 2.81383e-08H86.3881C88.6394 -0.000261691 90.4649 1.82523 90.4649 4.07653Z" fill="#DCF5F8"/>
<path d="M90.4649 4.07653V56.9432C90.4649 59.1945 88.6397 61.0197 86.3884 61.0197H73.4441L72.7296 60.7664C74.2852 60.1922 75.3933 58.6985 75.3933 56.9432V4.07653C75.3933 1.82523 73.5681 2.81383e-08 71.3168 2.81383e-08H86.3884C88.6394 -0.000261691 90.4649 1.82523 90.4649 4.07653Z" fill="#B8F1F2"/>
<path d="M24.1032 75.1706C30.3143 75.1706 35.3493 70.1355 35.3493 63.9245C35.3493 57.7135 30.3143 52.6785 24.1032 52.6785C17.8922 52.6785 12.8572 57.7135 12.8572 63.9245C12.8572 70.1355 17.8922 75.1706 24.1032 75.1706Z" fill="#918291"/>
<path d="M24.1033 52.6787C22.9883 52.6787 21.9124 52.8433 20.8956 53.1456C25.5432 54.5267 28.9338 58.8286 28.9338 63.9248C28.9338 69.021 25.5432 73.3228 20.8956 74.7039C21.9124 75.0062 22.9883 75.1708 24.1033 75.1708C30.3141 75.1708 35.3493 70.1359 35.3493 63.9248C35.3493 57.7137 30.3141 52.6787 24.1033 52.6787Z" fill="#7C727C"/>
<path d="M73.4425 61.0205H54.0575C52.9805 61.0205 52.1077 60.1474 52.1077 59.0707V51.4513C52.1077 50.3743 52.9808 49.5015 54.0575 49.5015H73.4425C74.5195 49.5015 75.3923 50.3746 75.3923 51.4513V59.0707C75.3926 60.1474 74.5195 61.0205 73.4425 61.0205Z" fill="#6BD9E7"/>
<path d="M73.4424 49.5015H66.5668C67.6438 49.5015 68.5166 50.3746 68.5166 51.4513V59.0707C68.5166 60.1477 67.6435 61.0205 66.5668 61.0205H73.4424C74.5194 61.0205 75.3923 60.1474 75.3923 59.0707V51.4513C75.3925 50.3743 74.5194 49.5015 73.4424 49.5015Z" fill="#02C7DD"/>
<path d="M0 11.9573H90.4649V16.0016H0V11.9573Z" fill="#B8F1F2"/>
<path d="M75.3933 11.9573H90.4649V16.0016H75.3933V11.9573Z" fill="#6BD9E7"/>
<path d="M32.9716 27.5899C32.9716 28.7088 32.0658 29.612 30.9496 29.612H0V25.5676H30.9493C32.0655 25.5676 32.9716 26.4737 32.9716 27.5899Z" fill="#B8F1F2"/>
<path d="M24.1032 66.0189C25.2599 66.0189 26.1975 65.0812 26.1975 63.9246C26.1975 62.768 25.2599 61.8303 24.1032 61.8303C22.9466 61.8303 22.009 62.768 22.009 63.9246C22.009 65.0812 22.9466 66.0189 24.1032 66.0189Z" fill="#DCF5F8"/>
</svg>
