<svg width="134" height="134" viewBox="0 0 134 134" fill="none" xmlns="http://www.w3.org/2000/svg">
<path d="M23.9707 70.8487L26.4734 51.4797C26.4734 44.5309 35.2267 38.5985 41.4688 44.8406L45.7241 49.0959L23.9707 70.8487Z" fill="#FFCEBF"/>
<path d="M45.7235 49.0951L42.8692 51.9523H42.8663L38.6116 47.6975C35.2162 44.3021 31.0798 44.5078 28.0113 46.5225C30.798 42.2903 36.828 40.1995 41.4687 44.8403L45.7235 49.0951Z" fill="#FFB09E"/>
<path d="M65.0075 25.8256L69.2634 30.0815L60.7516 38.5932L56.4957 34.3374C54.1465 31.9882 54.1465 28.1787 56.4976 25.8275C57.6732 24.652 59.2134 24.0642 60.7516 24.0642C62.294 24.0642 63.8319 24.65 65.0075 25.8256Z" fill="#FFCEBF"/>
<path d="M67.8965 28.7147L69.2633 30.0816L60.7516 38.5934L59.3847 37.2265C57.0355 34.8774 57.0355 31.0678 59.3867 28.7167C60.5622 27.5411 62.1024 26.9534 63.6406 26.9534C65.183 26.9534 66.7212 27.5392 67.8965 28.7147Z" fill="#FFB09E"/>
<path d="M56.4959 34.3375L60.7518 38.5934L52.242 47.1033L47.9861 42.8474C45.637 40.4982 45.637 36.6887 47.9881 34.3375C49.1617 33.164 50.7018 32.5762 52.242 32.5742C53.7822 32.5762 55.3204 33.162 56.4959 34.3375Z" fill="#FFCEBF"/>
<path d="M59.387 37.2284L60.7519 38.5933L52.2421 47.1032L50.8772 45.7382C48.5261 43.3871 48.5261 39.5776 50.8772 37.2265C52.0507 36.0529 53.5909 35.4651 55.1311 35.4631C56.6712 35.4651 58.2114 36.0529 59.387 37.2284Z" fill="#FFB09E"/>
<path d="M47.9861 42.8471L52.242 47.103L43.7303 55.6147L39.4744 51.3588C37.1252 49.0097 37.1272 45.1982 39.4763 42.849C40.6519 41.6735 42.1921 41.0857 43.7322 41.0837C45.2727 41.0857 46.8106 41.6715 47.9861 42.8471Z" fill="#FFCEBF"/>
<path d="M50.8771 45.738L52.242 47.1029L43.7303 55.6147L42.3653 54.2498C40.0142 51.8986 40.0162 48.0871 42.3653 45.738C43.5409 44.5624 45.0811 43.9746 46.6212 43.9727C48.1617 43.9746 49.7019 44.5624 50.8771 45.738Z" fill="#FFB09E"/>
<path d="M39.4746 51.3588L43.7305 55.6147L35.2207 64.1245L30.9648 59.8686C28.6157 57.5195 28.6157 53.7099 30.9668 51.3588C32.1424 50.1832 33.6805 49.5974 35.2207 49.5955C36.7609 49.5974 38.2991 50.1832 39.4746 51.3588Z" fill="#FFCEBF"/>
<path d="M42.3656 54.2497L43.7305 55.6146L35.2207 64.1244L33.8558 62.7595C31.5047 60.4084 31.5047 56.5988 33.8558 54.2477C35.0314 53.0722 36.5696 52.4863 38.1097 52.4844C39.6499 52.4863 41.1901 53.0741 42.3656 54.2497Z" fill="#FFB09E"/>
<path d="M69.2634 30.0815L113.617 74.4351L101.658 90.8283L83.2342 104.818C81.4475 103.031 79.7185 101.121 77.741 99.5399C75.477 97.7275 72.8698 96.2975 70.1219 95.3677C66.4797 94.1324 63.1723 92.0763 60.4546 89.3586L35.2205 64.1245L69.2634 30.0815Z" fill="#FFCEBF"/>
<path d="M64.7367 30.0815L98.7793 64.1242L73.5452 89.3583C70.8275 92.076 67.52 94.1321 63.8778 95.3674C58.4749 97.1961 54.6842 100.899 50.7656 104.817L34.8471 92.1326L20.3829 74.4348L64.7367 30.0815Z" fill="#FFCEBF"/>
<path d="M73.2479 38.5924L77.5032 34.3371C79.8532 31.9871 79.8532 28.1767 77.5032 25.8267C75.1532 23.4767 71.3428 23.4767 68.9928 25.8267L64.7375 30.082L73.2479 38.5924Z" fill="#FFCEBF"/>
<path d="M81.7583 47.1031L86.0136 42.8478C88.3636 40.4978 88.3636 36.6874 86.0136 34.3374C83.6636 31.9875 79.8532 31.9875 77.5032 34.3374L73.2479 38.5928L81.7583 47.1031Z" fill="#FFCEBF"/>
<path d="M90.2687 55.6134L94.524 51.3581C96.874 49.0081 96.874 45.1977 94.524 42.8477C92.174 40.4977 88.3636 40.4977 86.0136 42.8477L81.7583 47.103L90.2687 55.6134Z" fill="#FFCEBF"/>
<path d="M103.033 51.3585C105.384 53.7097 105.384 57.5192 103.035 59.8684L98.7793 64.1242L90.2695 55.6144L94.5254 51.3585C95.701 50.183 97.2391 49.5972 98.7793 49.5952C99.3034 49.5972 99.8253 49.6651 100.336 49.8003C101.324 50.0635 102.258 50.5834 103.033 51.3585Z" fill="#FFCEBF"/>
<path d="M103.036 59.867L98.7785 64.1246L90.2689 55.6151L94.5237 59.867L98.7785 55.6123C100.354 54.0372 100.875 51.8084 100.337 49.7993C101.323 50.0642 102.258 50.5826 103.033 51.3575C105.383 53.7103 105.383 57.5199 103.036 59.867Z" fill="#FFB09E"/>
<path d="M105.347 70.4872L97.9585 72.1187L90.9511 73.6651C89.5155 73.9818 88.2007 74.7025 87.161 75.742L73.5455 89.3575C70.8264 92.0766 67.5212 94.1336 63.8778 95.3677C58.4737 97.1914 54.6819 100.901 50.7642 104.818L48.1211 103.652L46.5122 100.564C50.4288 96.647 54.2204 92.936 59.6231 91.113C63.2636 89.876 66.5716 87.8191 69.2879 85.1028L81.2869 73.1063C82.8752 71.5182 82.8752 68.9434 81.2872 67.3553C78.2313 64.2995 75.1648 60.3347 70.8717 59.0645L60.2912 55.9312C53.7095 54.7401 54.5988 44.6997 61.4295 44.6997H76.4452C76.6058 44.6997 76.7692 44.7053 76.9326 44.711C81.4016 44.8519 85.1322 47.2836 88.2937 50.445L96.1495 58.298C99.5393 61.6903 103.115 66.2409 105.347 70.4872Z" fill="#FFB09E"/>
<path d="M92.6186 50.4441L100.473 58.2983C103.864 61.6894 107.438 66.24 109.67 70.488L102.284 72.1198L92.529 74.2717L80.441 62.1836C76.6171 58.3597 69.6263 57.4135 64.615 55.9294C57.9079 54.729 59.0593 44.6999 65.7547 44.7002H80.7698C80.9293 44.7002 81.0927 44.7041 81.2579 44.7101C85.7268 44.8515 89.4566 47.2821 92.6186 50.4441Z" fill="#FFCEBF"/>
<path d="M92.6186 50.4441L100.473 58.2982C103.864 61.6893 107.438 66.24 109.67 70.488L113.617 74.435L101.658 90.8283L83.2342 104.818C81.4475 103.031 79.7185 101.121 77.741 99.5398L95.3701 81.9107L99.2186 78.0623C101.747 75.5339 102.095 71.5573 100.048 68.6257C97.1264 64.4428 93.8023 60.028 92.0728 58.2985L84.2187 50.4444C81.0567 47.2823 77.3288 44.8537 72.8599 44.7083C72.7782 44.7064 80.7698 44.7004 80.7698 44.7004C80.9293 44.7004 81.0927 44.7044 81.2578 44.7103C85.7267 44.8515 89.4566 47.282 92.6186 50.4441Z" fill="#FFB09E"/>
<path d="M67.0001 12.2553C65.833 12.2553 64.8868 11.3091 64.8868 10.142V5.82155C64.8868 4.65444 65.833 3.70825 67.0001 3.70825C68.1675 3.70825 69.1134 4.65444 69.1134 5.82155V10.142C69.1134 11.3091 68.1672 12.2553 67.0001 12.2553Z" fill="#FFF0AD"/>
<path d="M57.0203 14.3037C56.206 14.3037 55.43 13.8304 55.0831 13.0366L53.3519 9.07827C52.8842 8.00894 53.3719 6.76294 54.4413 6.2952C55.5106 5.82718 56.7566 6.31521 57.2243 7.38453L58.9555 11.3429C59.4233 12.4122 58.9355 13.6582 57.8662 14.1259C57.5904 14.2465 57.303 14.3037 57.0203 14.3037Z" fill="#FFF0AD"/>
<path d="M48.6942 20.1784C48.1811 20.1784 47.6666 19.9927 47.26 19.6168L44.0878 16.6836C43.231 15.891 43.1785 14.5539 43.9709 13.6971C44.7635 12.8399 46.1 12.7875 46.9574 13.5801L50.1296 16.5134C50.9865 17.306 51.0389 18.643 50.2465 19.4999C49.8298 19.9505 49.2629 20.1784 48.6942 20.1784Z" fill="#FFF0AD"/>
<path d="M76.9799 14.3038C76.697 14.3038 76.4099 14.2466 76.1343 14.1263C75.065 13.6585 74.5773 12.4125 75.0447 11.3435L76.7759 7.38514C77.2437 6.31582 78.4905 5.82835 79.559 6.29553C80.6283 6.76327 81.1161 8.00927 80.6486 9.07831L78.9174 13.0367C78.57 13.8301 77.794 14.3038 76.9799 14.3038Z" fill="#FFF0AD"/>
<path d="M85.3055 20.1785C84.7366 20.1785 84.1699 19.9503 83.7532 19.5C82.9606 18.6429 83.0133 17.3059 83.8701 16.5135L87.0426 13.5803C87.8995 12.7877 89.2365 12.8403 90.0291 13.6972C90.8217 14.5544 90.7691 15.8914 89.9122 16.6837L86.7397 19.617C86.3334 19.9929 85.8189 20.1785 85.3055 20.1785Z" fill="#FFF0AD"/>
<path d="M113.617 74.4351L128.194 89.0117L112.553 106.61L92.7203 124.485L79.898 111.663C78.9293 110.694 78.9293 109.123 79.898 108.154L113.617 74.4351Z" fill="#DDEAFB"/>
<path d="M128.192 89.011L112.553 106.611L92.7203 124.486L88.7727 120.539L124.248 85.0662L128.192 89.011Z" fill="#CBE2FF"/>
<path d="M128.194 89.0117L133.273 94.0915C134.242 95.0603 134.242 96.6311 133.273 97.6002L101.308 129.565C100.34 130.533 98.7688 130.533 97.7998 129.565L92.72 124.485L128.194 89.0117Z" fill="#FFD15B"/>
<path d="M133.273 97.6022L101.308 129.564C100.339 130.533 98.7669 130.533 97.7976 129.564L94.5657 126.329C95.5378 127.27 97.0847 127.259 98.0428 126.301L130.01 94.3364C130.976 93.3671 130.976 91.7948 130.01 90.8284L133.273 94.0913C134.242 95.0606 134.242 96.6329 133.273 97.6022Z" fill="#FFC344"/>
<path d="M20.3832 74.4351L54.1023 108.154C55.0711 109.123 55.0711 110.694 54.1023 111.663L41.2797 124.485L23.1843 108.456L5.80652 89.0117L20.3832 74.4351Z" fill="#DDEAFB"/>
<path d="M54.1029 111.661L51.8715 113.894L16.3992 78.4191L20.3834 74.4348L54.102 108.153C55.071 109.122 55.071 110.692 54.1029 111.661Z" fill="#CBE2FF"/>
<path d="M41.2797 112.548C42.595 112.548 43.6612 111.482 43.6612 110.167C43.6612 108.852 42.595 107.785 41.2797 107.785C39.9644 107.785 38.8981 108.852 38.8981 110.167C38.8981 111.482 39.9644 112.548 41.2797 112.548Z" fill="#FFF9DF"/>
<path d="M5.8065 89.0117L41.2797 124.485L36.1999 129.565C35.2312 130.533 33.6603 130.533 32.6913 129.565L0.726703 97.5999C-0.242031 96.6311 -0.242031 95.0603 0.726703 94.0912L5.8065 89.0117Z" fill="#528FD8"/>
<path d="M2.37848 92.4219L5.79518 89.0052L41.2629 124.473L37.8462 127.89L2.37848 92.4219Z" fill="#0473CE"/>
</svg>
