<svg width="134" height="117" viewBox="0 0 134 117" fill="none" xmlns="http://www.w3.org/2000/svg">
<path d="M121.306 106.938L108.14 108.286L94.9747 106.938V62.5081L108.14 61.2832L121.306 62.5081V106.938Z" fill="#5A5A5A"/>
<path d="M121.306 62.5083V106.939L118.879 108.287L116.452 106.939V62.5083L118.879 61.5139L121.306 62.5083Z" fill="#444444"/>
<path d="M108.14 62.5081V106.938L105.66 108.033L103.183 106.938V62.5081L105.661 61.2832L108.14 62.5081Z" fill="#444444"/>
<path d="M108.14 106.938V116.105H121.813C123.87 116.105 125.537 114.438 125.537 112.382C125.537 111.32 125.084 110.309 124.292 109.603L121.305 106.938H108.14Z" fill="#DDEAFB"/>
<path d="M125.538 112.382C125.538 114.439 123.869 116.105 121.812 116.105H116.959C119.016 116.105 120.685 114.439 120.685 112.382C120.685 111.851 120.572 111.333 120.359 110.859C120.148 110.384 119.836 109.955 119.439 109.602L116.452 106.938H121.305L124.292 109.602C124.689 109.955 125.002 110.384 125.212 110.859C125.425 111.333 125.538 111.851 125.538 112.382Z" fill="#CBE2FF"/>
<path d="M108.14 106.938V116.105H94.4662C92.4096 116.105 90.7423 114.438 90.7423 112.382C90.7423 111.32 91.1952 110.309 91.9874 109.603L94.9742 106.938H108.14Z" fill="#DDEAFB"/>
<path d="M103.181 106.938H108.14V116.105H103.181V106.938Z" fill="#CBE2FF"/>
<path d="M78.0465 106.938L64.8797 108.286L51.7154 106.938V62.5081L64.8797 61.2832L78.0465 62.5081V106.938Z" fill="#5A5A5A"/>
<path d="M78.0462 62.5081V106.938L75.6197 107.747L73.1931 106.938V62.5081L75.6197 61.2832L78.0462 62.5081Z" fill="#444444"/>
<path d="M64.8803 62.5083V106.939L62.4019 108.033L59.9236 106.939V62.5083L62.4019 61.5139L64.8803 62.5083Z" fill="#444444"/>
<path d="M64.8797 106.938V116.105H78.5531C80.6098 116.105 82.2771 114.438 82.2771 112.382C82.2771 111.32 81.8241 110.309 81.032 109.603L78.0452 106.938H64.8797Z" fill="#DDEAFB"/>
<path d="M82.2781 112.382C82.2781 114.439 80.6092 116.105 78.552 116.105H73.6989C75.7561 116.105 77.425 114.439 77.425 112.382C77.425 111.851 77.3118 111.333 77.0988 110.859C76.8885 110.384 76.5757 109.955 76.1794 109.602L73.192 106.938H78.0451L81.0325 109.602C81.4288 109.955 81.7416 110.384 81.9519 110.859C82.1649 111.333 82.2781 111.851 82.2781 112.382Z" fill="#CBE2FF"/>
<path d="M64.8797 106.938V116.105H51.2063C49.1497 116.105 47.4824 114.438 47.4824 112.382C47.4824 111.32 47.9353 110.309 48.7275 109.603L51.7143 106.938H64.8797Z" fill="#DDEAFB"/>
<path d="M59.9214 106.938H64.8797V116.105H59.9214V106.938Z" fill="#CBE2FF"/>
<path d="M34.7944 106.938L21.6282 107.747L8.46329 106.938V62.5081L21.6287 61.2832L34.7944 62.5081V106.938Z" fill="#5A5A5A"/>
<path d="M34.7942 62.508V106.938L32.3676 107.657L29.941 106.938V62.508L32.3676 61.6426L34.7942 62.508Z" fill="#444444"/>
<path d="M21.6282 62.5083V106.939L19.1496 107.595L16.6713 106.939V62.5083L19.1496 61.5139L21.6282 62.5083Z" fill="#444444"/>
<path d="M21.6287 106.938V116.105H35.3021C37.3588 116.105 39.0261 114.438 39.0261 112.382C39.0261 111.32 38.5731 110.309 37.781 109.603L34.7942 106.938H21.6287Z" fill="#DDEAFB"/>
<path d="M39.0272 112.382C39.0272 114.439 37.3582 116.105 35.301 116.105H30.4479C32.5051 116.105 34.174 114.439 34.174 112.382C34.174 111.851 34.0608 111.333 33.8478 110.859C33.6375 110.384 33.3247 109.955 32.9284 109.602L29.941 106.938H34.7942L37.7815 109.602C38.1779 109.955 38.4906 110.384 38.7009 110.859C38.9139 111.333 39.0272 111.851 39.0272 112.382Z" fill="#CBE2FF"/>
<path d="M21.6287 106.938V116.105H7.95534C5.8987 116.105 4.23138 114.438 4.23138 112.382C4.23138 111.32 4.68434 110.309 5.47648 109.603L8.4633 106.938H21.6287Z" fill="#DDEAFB"/>
<path d="M16.6705 106.938H21.6287V116.105H16.6705V106.938Z" fill="#CBE2FF"/>
<path d="M134 4.2303V15.3251L129.77 16.4143L125.537 15.3251V4.2303C125.537 1.89541 127.432 0 129.77 0C130.498 0 131.185 0.186036 131.784 0.512273H131.786C133.105 1.22676 134 2.62338 134 4.2303Z" fill="#FFCEBF"/>
<path d="M131.785 0.512003H131.783C131.184 0.184957 130.499 0 129.769 0C128.998 0 128.276 0.209762 127.653 0.57051C128.917 1.30063 129.768 2.66571 129.768 4.23138V15.3259L131.883 15.87L134 15.3259V4.23138C134 2.62419 133.105 1.22649 131.785 0.512003Z" fill="#FFB09E"/>
<path d="M117.27 10.8306V13.5483L108.139 14.527L99.0063 13.5483V10.8306C99.0063 8.30423 101.058 6.25244 103.587 6.25244H112.695C115.218 6.25244 117.27 8.30423 117.27 10.8306Z" fill="#FFD15B"/>
<path d="M43.2569 56.5493V67.6438C43.2569 69.9803 41.3607 71.8735 39.0242 71.8735C38.2946 71.8735 37.6084 71.691 37.0091 71.3639C36.9743 71.3467 36.9395 71.3265 36.9077 71.306C36.2911 70.9498 35.7756 70.4432 35.4081 69.8382C35.0171 69.1984 34.7942 68.4456 34.7942 67.6438V56.5493L39.0255 54.9919L43.2569 56.5493Z" fill="#FFCEBF"/>
<path d="M8.46249 56.5494V67.6439C8.46249 69.9804 6.56897 71.8736 4.23273 71.8736C3.4627 71.8736 2.73878 71.6679 2.1165 71.3061C0.851183 70.5765 0 69.2101 0 67.6439V56.5494L4.2303 54.363L8.46249 56.5494Z" fill="#FFCEBF"/>
<path d="M8.46248 56.5494V67.6439C8.46248 69.9804 6.56895 71.8736 4.23271 71.8736C3.46269 71.8736 2.73876 71.6679 2.11649 71.3061C3.37884 70.5765 4.23002 69.2101 4.23002 67.6436V56.5491L6.34706 55.4561L8.46248 56.5494Z" fill="#FFB09E"/>
<path d="M43.2569 56.5493V67.6438C43.2569 69.9803 41.3607 71.8735 39.0242 71.8735C38.2946 71.8735 37.6084 71.691 37.0091 71.364C36.9743 71.3467 36.9395 71.3265 36.9077 71.306C38.173 70.5794 39.0269 69.21 39.0269 67.6435V56.549L40.8468 54.9917L43.2569 56.5493Z" fill="#FFB09E"/>
<path d="M117.269 10.8303V13.5488L114.992 14.1002L112.564 13.5488V10.8303C112.564 8.30287 110.514 6.25 107.99 6.25H112.694C115.219 6.25 117.269 8.3026 117.269 10.8303Z" fill="#FFC344"/>
<path d="M43.2575 34.9694V56.5496H34.7942V62.5082H8.4633V56.5496H0V34.9694C0 30.2969 3.79082 26.5061 8.4633 26.5061H12.4995L21.626 27.4686L30.7526 26.5115L30.7553 26.5061H34.7942C37.1318 26.5061 39.2482 27.4498 40.7797 28.9812C42.3084 30.5153 43.2575 32.6318 43.2575 34.9694Z" fill="#FFD15B"/>
<path d="M43.2569 34.9686V56.5493H39.0272V34.9686C39.0272 32.6324 38.0776 30.5159 36.5488 28.9815C35.0578 27.4905 33.0139 26.5581 30.7526 26.5118L30.7556 26.5061H34.7944C37.1309 26.5061 39.2472 27.45 40.7789 28.9815C42.3073 30.5159 43.2569 32.6324 43.2569 34.9686Z" fill="#FFC344"/>
<path d="M30.7585 10.8315V17.3717C30.7585 22.4151 26.6762 26.5031 21.6301 26.5031H21.6244C20.8137 26.5031 20.0234 26.399 19.2763 26.1989C19.0593 26.141 18.8479 26.0744 18.6395 26.0021C18.5961 25.9905 18.5497 25.9733 18.5063 25.9587C15.0002 24.6848 12.496 21.3207 12.496 17.3717V10.8315L21.629 13.381L30.7585 10.8315Z" fill="#FFCEBF"/>
<path d="M30.7585 10.8315V17.3717C30.7585 22.4151 26.6763 26.5031 21.6301 26.5031H21.6244C20.8137 26.5031 20.0234 26.399 19.2763 26.1989C23.182 25.1625 26.054 21.6014 26.054 17.3717V14.4245L28.1079 12.1004L30.7585 10.8315Z" fill="#FFB09E"/>
<path d="M30.7586 10.8315C29.1748 12.5859 27.5914 13.7326 26.054 14.4244C18.732 17.7394 12.4957 10.8315 12.4957 10.8315C12.4957 8.30409 14.5483 6.25122 17.076 6.25122H26.1842C28.7086 6.25122 30.7586 8.30409 30.7586 10.8315Z" fill="#5A5A5A"/>
<path d="M30.7585 10.8315C29.1748 12.5859 27.5913 13.7326 26.0539 14.4244V10.8315C26.0539 8.30409 24.004 6.25122 21.4796 6.25122H26.1842C28.7086 6.25122 30.7585 8.30409 30.7585 10.8315Z" fill="#444444"/>
<path d="M86.5109 56.5493V67.6438C86.5109 69.9803 84.6146 71.8735 82.2781 71.8735C81.5486 71.8735 80.8624 71.691 80.263 71.3639C80.2282 71.3467 80.1935 71.3265 80.1616 71.306C79.545 70.9498 79.0295 70.4432 78.662 69.8382C78.2711 69.1984 78.0481 68.4456 78.0481 67.6438V56.5493L82.2808 55.4414L86.5109 56.5493Z" fill="#FFCEBF"/>
<path d="M51.7164 56.5493V67.6438C51.7164 69.9803 49.8229 71.8735 47.4867 71.8735C46.7166 71.8735 45.9927 71.6678 45.3704 71.306C44.1051 70.5764 43.2539 69.21 43.2539 67.6435V56.549L47.4824 54.9917L51.7164 56.5493Z" fill="#FFCEBF"/>
<path d="M51.7164 56.5492V67.6437C51.7164 69.9802 49.8229 71.8735 47.4867 71.8735C46.7167 71.8735 45.9927 71.6678 45.3705 71.3059C46.6328 70.5763 47.484 69.2099 47.484 67.6434V56.5489L49.5991 55.77L51.7164 56.5492Z" fill="#FFB09E"/>
<path d="M86.5109 56.5495V67.644C86.5109 69.9805 84.6147 71.8738 82.2781 71.8738C81.5486 71.8738 80.8624 71.6913 80.263 71.3642C80.2282 71.347 80.1935 71.3267 80.1617 71.3063C81.427 70.5796 82.2808 69.2102 82.2808 67.6438V56.5493L84.6149 55.4414L86.5109 56.5495Z" fill="#FFB09E"/>
<path d="M86.5095 34.9694V56.5496H78.0489V62.5082H51.7154V56.5496H43.2548V34.9694C43.2548 30.2969 47.0429 26.5061 51.7154 26.5061H55.7515L55.7488 26.5034H74.0128L74.0101 26.5061H78.0489C80.3838 26.5061 82.5003 27.4498 84.0317 28.9812C85.5605 30.5153 86.5095 32.6318 86.5095 34.9694Z" fill="#329DFF"/>
<path d="M86.5109 34.9686V56.5493H82.2811V34.9686C82.2811 32.6324 81.3315 30.5159 79.8028 28.9815C78.3118 27.4905 76.2678 26.5581 74.0065 26.5118L74.0095 26.5061H78.0484C80.3849 26.5061 82.5011 27.45 84.0328 28.9815C85.561 30.5159 86.5109 32.6324 86.5109 34.9686Z" fill="#2D8FEA"/>
<path d="M69.4379 6.25122H60.3297C57.8023 6.25122 55.7494 8.30382 55.7494 10.8315V17.3716C55.7494 21.3207 58.2539 24.6847 61.7597 25.9587C61.8031 25.9732 61.8495 25.9905 61.8929 26.0021C62.1013 26.0743 62.3127 26.1409 62.5297 26.1989C63.2766 26.3987 64.0671 26.503 64.8778 26.503H64.8835C69.9297 26.503 74.0119 22.4151 74.0119 17.3716V10.8315C74.0122 8.30409 71.9626 6.25122 69.4379 6.25122Z" fill="#FFCEBF"/>
<path d="M69.4379 6.25122H64.7333C67.258 6.25122 69.3077 8.30382 69.3077 10.8315V14.4244V17.3719C69.3077 21.6016 66.4357 25.1627 62.53 26.1992C63.2769 26.3989 64.0674 26.5033 64.8781 26.5033H64.8838C69.93 26.5033 74.0122 22.4153 74.0122 17.3719V10.8315C74.0122 8.30409 71.9626 6.25122 69.4379 6.25122Z" fill="#FFB09E"/>
<path d="M94.9728 56.5495V67.6443C94.9728 69.9792 93.0801 71.8746 90.7425 71.8746C89.9741 71.8746 89.2489 71.667 88.626 71.3057C87.3615 70.5777 86.5095 69.2108 86.5095 67.6443V56.5495L90.7412 55.4414L94.9728 56.5495Z" fill="#FFCEBF"/>
<path d="M94.9734 56.5495V67.644C94.9734 69.9805 93.0798 71.8738 90.7436 71.8738C89.9736 71.8738 89.2497 71.6681 88.6274 71.3063C89.8897 70.5767 90.7409 69.2102 90.7409 67.6438V56.5493L92.9537 55.4414L94.9734 56.5495Z" fill="#FFB09E"/>
<path d="M133.997 15.325V23.7748C133.997 25.3871 133.369 26.9374 132.245 28.094L129.77 30.6446L121.304 39.3614V62.508H94.9755V56.5468H86.5122V34.9693C86.5122 30.2941 90.3031 26.5033 94.9782 26.5033H117.311C118.661 26.5033 119.964 25.9856 120.948 25.0555L123.879 22.2865C124.935 21.2862 125.537 19.895 125.537 18.4363V15.325H133.997Z" fill="#A274BF"/>
<path d="M133.997 15.325V23.7756C133.997 25.3884 133.369 26.9377 132.246 28.0949L129.77 30.6449V15.3252H133.997V15.325Z" fill="#925CB4"/>
<path d="M121.209 39.3611H121.305V62.5078H116.452V44.6677C116.452 43.2158 116.982 41.7936 118.006 40.7647C118.863 39.9044 119.972 39.3611 121.209 39.3611Z" fill="#925CB4"/>
<path d="M117.27 13.5483V17.3715C117.27 22.4161 113.188 26.5035 108.141 26.5035H108.136C107.324 26.5035 106.534 26.3983 105.787 26.1988C105.569 26.1422 105.359 26.0748 105.151 26.002C105.108 25.9912 105.059 25.9723 105.016 25.9588C101.511 24.6862 99.0063 21.3214 99.0063 17.3715V13.5483H117.27Z" fill="#FFCEBF"/>
<path d="M117.27 13.5483V17.3715C117.27 22.4161 113.188 26.5035 108.141 26.5035H108.136C107.324 26.5035 106.534 26.3983 105.787 26.1988C109.691 25.1635 112.565 21.6018 112.565 17.3715V13.5483H117.27Z" fill="#FFB09E"/>
<path d="M30.7586 26.5032L30.7556 26.5061L22.8876 39.829C22.3211 40.7883 20.9331 40.7883 20.3667 39.829L12.4987 26.5061L12.4957 26.5032H30.7586Z" fill="#DDEAFB"/>
<path d="M8.46328 43.74V56.5496H4.23029V43.74C4.23029 42.5726 5.17664 41.6235 6.34679 41.6235C7.51423 41.6235 8.46328 42.5726 8.46328 43.74Z" fill="#FFC344"/>
<path d="M34.7942 44.0501V62.5081H29.941V44.0501C29.941 42.7101 31.0276 41.6235 32.3676 41.6235C33.7076 41.6235 34.7942 42.7101 34.7942 44.0501Z" fill="#FFC344"/>
<path d="M51.7154 43.74V56.5496H47.4824V43.74C47.4824 42.5699 48.4314 41.6235 49.5989 41.6235C50.769 41.6235 51.7154 42.5699 51.7154 43.74Z" fill="#2D8FEA"/>
<path d="M78.0462 44.0501V62.5081H73.1931V44.0501C73.1931 42.7101 74.2797 41.6235 75.6197 41.6235C76.9597 41.6235 78.0462 42.7101 78.0462 44.0501Z" fill="#2D8FEA"/>
<path d="M73.7243 34.1983C73.3225 34.6594 72.7617 34.8939 72.1982 34.8939C71.7264 34.8939 71.2546 34.7295 70.8717 34.3978L64.8808 29.1834L58.8926 34.3978C58.0514 35.1285 56.7734 35.0422 56.04 34.1983C55.3067 33.3571 55.3956 32.0791 56.2369 31.3458L61.8018 26.5034H67.9625L73.5247 31.3458C74.3686 32.0791 74.4576 33.3571 73.7243 34.1983Z" fill="#2D8FEA"/>
<path d="M66.9029 43.6457V62.5081H62.8587V43.6457C62.8587 42.5295 63.7646 41.6235 64.8808 41.6235C65.9997 41.6235 66.9029 42.5295 66.9029 43.6457Z" fill="#2D8FEA"/>
<path d="M94.9728 43.74V56.5469H90.7398V43.74C90.7398 42.5699 91.6889 41.6235 92.8563 41.6235C94.0265 41.6235 94.9728 42.5699 94.9728 43.74Z" fill="#925CB4"/>
<path d="M110.16 26.5034V35.5572C110.16 36.6734 109.254 37.5793 108.138 37.5793C107.022 37.5793 106.116 36.6734 106.116 35.5572V26.5034H110.16Z" fill="#925CB4"/>
</svg>
